<svg xmlns="http://www.w3.org/2000/svg" xmlns:xlink="http://www.w3.org/1999/xlink" width="500" zoomAndPan="magnify" viewBox="0 0 375 374.999991" height="500" preserveAspectRatio="xMidYMid meet" version="1.0"><defs><g/><clipPath id="085b4d9c98"><path d="M 65.652344 167.34375 L 309.402344 167.34375 L 309.402344 207.84375 L 65.652344 207.84375 Z M 65.652344 167.34375 " clip-rule="nonzero"/></clipPath></defs><rect x="-37.5" width="450" fill="#ffffff" y="-37.499999" height="449.999989" fill-opacity="1"/><rect x="-37.5" width="450" fill="#000000" y="-37.499999" height="449.999989" fill-opacity="1"/><g fill="#ffffff" fill-opacity="1"><g transform="translate(97.194168, 253.874983)"><g><path d="M 54.003906 -83.6875 C 54.003906 -77.050781 49.902344 -72.65625 42.089844 -72.65625 L 33.007812 -72.65625 L 33.007812 -111.421875 L 42.773438 -111.421875 C 49.511719 -111.421875 54.003906 -106.929688 54.003906 -99.898438 Z M 75.683594 -0.0976562 C 78.316406 -0.0976562 79.195312 -2.441406 79.195312 -4.199219 L 79.195312 -21.777344 C 79.195312 -41.308594 74.902344 -53.613281 66.113281 -61.035156 C 74.023438 -66.308594 80.074219 -74.316406 80.074219 -85.933594 L 80.074219 -99.898438 C 80.074219 -119.332031 64.941406 -135.152344 44.824219 -135.152344 L 10.351562 -135.152344 C 8.300781 -135.152344 7.03125 -133.6875 7.03125 -131.34375 L 7.03125 -3.613281 C 7.03125 -1.367188 8.007812 0 10.253906 0 L 29.785156 0 C 31.933594 0 33.007812 -1.367188 33.007812 -3.613281 L 33.007812 -52.539062 C 46.386719 -51.660156 53.222656 -43.75 53.222656 -24.902344 L 53.222656 -4.492188 C 53.222656 -1.5625 55.46875 -0.0976562 57.714844 -0.0976562 Z M 75.683594 -0.0976562 "/></g></g></g><g fill="#ffffff" fill-opacity="1"><g transform="translate(192.543605, 253.874983)"><g><path d="M 32.226562 -101.949219 C 32.226562 -108.101562 36.035156 -113.667969 42.675781 -113.667969 C 49.21875 -113.667969 53.027344 -108.101562 53.027344 -101.949219 L 53.027344 -54.980469 L 32.226562 -54.980469 Z M 79.097656 -103.414062 C 79.097656 -122.164062 62.109375 -137.300781 42.578125 -137.300781 C 23.046875 -137.300781 6.152344 -122.164062 6.152344 -103.414062 L 6.152344 -3.808594 C 6.152344 -1.757812 7.226562 0 8.691406 0 L 29.296875 0 C 31.640625 0 32.226562 -1.660156 32.226562 -3.808594 L 32.226562 -32.226562 L 53.027344 -32.226562 L 53.027344 -3.90625 C 53.027344 -1.855469 54.199219 0 56.152344 0 L 75.976562 0 C 78.21875 0 79.097656 -1.953125 79.097656 -3.90625 Z M 79.097656 -103.414062 "/></g></g></g><g clip-path="url(#085b4d9c98)"><path fill="#000000" d="M 65.65625 167.34375 L 309.398438 167.34375 L 309.398438 207.84375 L 65.65625 207.84375 L 65.65625 167.34375 " fill-opacity="1" fill-rule="nonzero"/></g><g fill="#ffffff" fill-opacity="1"><g transform="translate(57.476957, 193.875045)"><g><path d="M 4.859375 -7.527344 C 4.859375 -6.933594 4.488281 -6.535156 3.785156 -6.535156 L 2.96875 -6.535156 L 2.96875 -10.023438 L 3.847656 -10.023438 C 4.453125 -10.023438 4.859375 -9.621094 4.859375 -8.988281 Z M 6.808594 -0.0078125 C 7.046875 -0.0078125 7.125 -0.21875 7.125 -0.378906 L 7.125 -1.960938 C 7.125 -3.714844 6.738281 -4.824219 5.949219 -5.492188 C 6.660156 -5.964844 7.203125 -6.6875 7.203125 -7.730469 L 7.203125 -8.988281 C 7.203125 -10.734375 5.84375 -12.160156 4.03125 -12.160156 L 0.929688 -12.160156 C 0.746094 -12.160156 0.632812 -12.027344 0.632812 -11.816406 L 0.632812 -0.324219 C 0.632812 -0.121094 0.71875 0 0.921875 0 L 2.679688 0 C 2.871094 0 2.96875 -0.121094 2.96875 -0.324219 L 2.96875 -4.726562 C 4.171875 -4.648438 4.789062 -3.9375 4.789062 -2.242188 L 4.789062 -0.402344 C 4.789062 -0.140625 4.988281 -0.0078125 5.191406 -0.0078125 Z M 6.808594 -0.0078125 "/></g></g></g><g fill="#ffffff" fill-opacity="1"><g transform="translate(74.423558, 193.875045)"><g><path d="M 7.003906 -9.296875 C 7.003906 -11.210938 5.472656 -12.34375 3.707031 -12.34375 C 1.949219 -12.34375 0.4375 -11.203125 0.4375 -9.296875 L 0.4375 -2.855469 C 0.4375 -0.992188 1.949219 0.191406 3.707031 0.191406 C 5.472656 0.191406 7.003906 -0.949219 7.003906 -2.855469 Z M 3.726562 -10.234375 C 4.3125 -10.234375 4.664062 -9.726562 4.664062 -9.164062 L 4.664062 -2.925781 C 4.664062 -2.371094 4.3125 -1.925781 3.707031 -1.925781 C 3.109375 -1.925781 2.777344 -2.425781 2.777344 -2.976562 L 2.777344 -9.164062 C 2.777344 -9.726562 3.128906 -10.234375 3.726562 -10.234375 Z M 3.726562 -10.234375 "/></g></g></g><g fill="#ffffff" fill-opacity="1"><g transform="translate(91.133013, 193.875045)"><g><path d="M 2.96875 -10.023438 L 3.839844 -10.023438 C 4.4375 -10.023438 4.847656 -9.679688 4.847656 -8.945312 L 4.847656 -3.1875 C 4.847656 -2.589844 4.472656 -2.136719 3.882812 -2.117188 L 2.96875 -2.117188 Z M 0.632812 -0.332031 C 0.632812 -0.121094 0.730469 0 0.929688 0 L 3.996094 0 C 5.789062 -0.015625 7.1875 -1.097656 7.1875 -3.117188 L 7.1875 -9.039062 C 7.1875 -11.050781 5.796875 -12.140625 3.980469 -12.160156 L 0.929688 -12.160156 C 0.746094 -12.160156 0.632812 -12.027344 0.632812 -11.816406 Z M 0.632812 -0.332031 "/></g></g></g><g fill="#ffffff" fill-opacity="1"><g transform="translate(108.026915, 193.875045)"><g><path d="M 6.835938 0 C 7.027344 0 7.117188 -0.175781 7.117188 -0.351562 L 7.117188 -9.304688 C 7.117188 -10.992188 5.585938 -12.351562 3.832031 -12.351562 C 2.074219 -12.351562 0.554688 -10.992188 0.554688 -9.304688 L 0.554688 -0.34375 C 0.554688 -0.15625 0.648438 0 0.78125 0 L 2.636719 0 C 2.835938 0 2.898438 -0.148438 2.898438 -0.34375 L 2.898438 -9.171875 C 2.898438 -9.726562 3.242188 -10.226562 3.839844 -10.226562 C 4.429688 -10.226562 4.769531 -9.726562 4.769531 -9.171875 L 4.769531 -0.351562 C 4.769531 -0.167969 4.875 0 5.050781 0 Z M 6.835938 0 "/></g></g></g><g fill="#ffffff" fill-opacity="1"><g transform="translate(124.964736, 193.875045)"><g><path d="M 2.96875 -2.117188 L 2.96875 -5.09375 L 5.535156 -5.09375 C 5.703125 -5.09375 5.816406 -5.183594 5.816406 -5.394531 L 5.816406 -6.898438 C 5.816406 -7.117188 5.683594 -7.203125 5.535156 -7.203125 L 2.96875 -7.203125 L 2.96875 -10.023438 L 6.183594 -10.023438 C 6.34375 -10.023438 6.429688 -10.128906 6.429688 -10.339844 L 6.429688 -11.832031 C 6.429688 -12.054688 6.34375 -12.160156 6.183594 -12.160156 L 0.929688 -12.160156 C 0.746094 -12.160156 0.632812 -12.027344 0.632812 -11.816406 L 0.632812 -0.332031 C 0.632812 -0.121094 0.730469 0 0.929688 0 L 6.230469 0 C 6.371094 0 6.484375 -0.0976562 6.484375 -0.308594 L 6.484375 -1.820312 C 6.484375 -2.019531 6.371094 -2.117188 6.230469 -2.117188 Z M 2.96875 -2.117188 "/></g></g></g><g fill="#ffffff" fill-opacity="1"><g transform="translate(140.918824, 193.875045)"><g><path d="M 4.8125 -4.882812 C 6.027344 -5.28125 6.933594 -6.289062 6.933594 -7.757812 L 6.933594 -11.964844 C 6.933594 -12.089844 6.863281 -12.160156 6.746094 -12.160156 L 4.777344 -12.160156 C 4.648438 -12.160156 4.585938 -12.070312 4.585938 -11.957031 L 4.585938 -7.828125 C 4.585938 -7.273438 4.253906 -6.828125 3.644531 -6.828125 C 3.039062 -6.828125 2.714844 -7.328125 2.714844 -7.878906 L 2.714844 -11.972656 C 2.714844 -12.070312 2.636719 -12.160156 2.496094 -12.160156 L 0.5625 -12.160156 C 0.429688 -12.160156 0.378906 -12.070312 0.378906 -11.957031 L 0.367188 -7.757812 C 0.367188 -6.324219 1.265625 -5.296875 2.476562 -4.894531 L 2.476562 -0.34375 C 2.476562 -0.121094 2.554688 0 2.742188 0 L 4.558594 0 C 4.742188 0 4.8125 -0.121094 4.8125 -0.34375 Z M 4.8125 -4.882812 "/></g></g></g><g fill="#ffffff" fill-opacity="1"><g transform="translate(157.487751, 193.875045)"><g/></g></g><g fill="#ffffff" fill-opacity="1"><g transform="translate(170.833186, 193.875045)"><g><path d="M 2.898438 -9.171875 C 2.898438 -9.726562 3.242188 -10.226562 3.839844 -10.226562 C 4.429688 -10.226562 4.769531 -9.726562 4.769531 -9.171875 L 4.769531 -4.945312 L 2.898438 -4.945312 Z M 7.117188 -9.304688 C 7.117188 -10.992188 5.585938 -12.351562 3.832031 -12.351562 C 2.074219 -12.351562 0.554688 -10.992188 0.554688 -9.304688 L 0.554688 -0.34375 C 0.554688 -0.15625 0.648438 0 0.78125 0 L 2.636719 0 C 2.847656 0 2.898438 -0.148438 2.898438 -0.34375 L 2.898438 -2.898438 L 4.769531 -2.898438 L 4.769531 -0.351562 C 4.769531 -0.167969 4.875 0 5.050781 0 L 6.835938 0 C 7.035156 0 7.117188 -0.175781 7.117188 -0.351562 Z M 7.117188 -9.304688 "/></g></g></g><g fill="#ffffff" fill-opacity="1"><g transform="translate(187.771013, 193.875045)"><g><path d="M 5.710938 -6.105469 C 6.640625 -6.878906 7.1875 -8.03125 7.1875 -9.523438 L 7.1875 -11.78125 C 7.1875 -11.9375 7.105469 -12.160156 6.871094 -12.160156 L 5.246094 -12.160156 C 5.042969 -12.160156 4.839844 -12.019531 4.839844 -11.753906 L 4.839844 -9.785156 C 4.839844 -8.300781 4.417969 -7.273438 2.96875 -7.152344 L 2.96875 -11.816406 C 2.96875 -12.027344 2.882812 -12.160156 2.679688 -12.160156 L 0.929688 -12.160156 C 0.738281 -12.160156 0.632812 -12.027344 0.632812 -11.816406 L 0.632812 -0.332031 C 0.632812 -0.121094 0.730469 0 0.929688 0 L 2.6875 0 C 2.890625 0 2.96875 -0.121094 2.96875 -0.332031 L 2.96875 -4.945312 C 4.515625 -4.875 4.964844 -3.832031 4.964844 -2.3125 L 4.964844 -0.394531 C 4.964844 -0.132812 5.15625 0 5.359375 0 L 6.992188 0 C 7.222656 0 7.308594 -0.210938 7.308594 -0.367188 L 7.308594 -2.582031 C 7.308594 -4.136719 6.722656 -5.332031 5.710938 -6.105469 Z M 5.710938 -6.105469 "/></g></g></g><g fill="#ffffff" fill-opacity="1"><g transform="translate(204.752752, 193.875045)"><g><path d="M 2.898438 -9.171875 C 2.898438 -9.726562 3.242188 -10.226562 3.839844 -10.226562 C 4.429688 -10.226562 4.769531 -9.726562 4.769531 -9.171875 L 4.769531 -4.945312 L 2.898438 -4.945312 Z M 7.117188 -9.304688 C 7.117188 -10.992188 5.585938 -12.351562 3.832031 -12.351562 C 2.074219 -12.351562 0.554688 -10.992188 0.554688 -9.304688 L 0.554688 -0.34375 C 0.554688 -0.15625 0.648438 0 0.78125 0 L 2.636719 0 C 2.847656 0 2.898438 -0.148438 2.898438 -0.34375 L 2.898438 -2.898438 L 4.769531 -2.898438 L 4.769531 -0.351562 C 4.769531 -0.167969 4.875 0 5.050781 0 L 6.835938 0 C 7.035156 0 7.117188 -0.175781 7.117188 -0.351562 Z M 7.117188 -9.304688 "/></g></g></g><g fill="#ffffff" fill-opacity="1"><g transform="translate(221.690579, 193.875045)"><g><path d="M 6.835938 0 C 7.027344 0 7.117188 -0.175781 7.117188 -0.351562 L 7.117188 -9.304688 C 7.117188 -10.992188 5.585938 -12.351562 3.832031 -12.351562 C 2.074219 -12.351562 0.554688 -10.992188 0.554688 -9.304688 L 0.554688 -0.34375 C 0.554688 -0.15625 0.648438 0 0.78125 0 L 2.636719 0 C 2.835938 0 2.898438 -0.148438 2.898438 -0.34375 L 2.898438 -9.171875 C 2.898438 -9.726562 3.242188 -10.226562 3.839844 -10.226562 C 4.429688 -10.226562 4.769531 -9.726562 4.769531 -9.171875 L 4.769531 -0.351562 C 4.769531 -0.167969 4.875 0 5.050781 0 Z M 6.835938 0 "/></g></g></g><g fill="#ffffff" fill-opacity="1"><g transform="translate(238.628406, 193.875045)"><g><path d="M 4.683594 -2.925781 C 4.683594 -2.371094 4.269531 -1.925781 3.707031 -1.925781 C 3.1875 -1.925781 2.777344 -2.34375 2.777344 -2.96875 L 2.777344 -9.214844 C 2.777344 -9.777344 3.136719 -10.234375 3.699219 -10.234375 C 4.296875 -10.234375 4.640625 -9.714844 4.640625 -9.191406 L 4.640625 -8.417969 C 4.640625 -8.179688 4.691406 -8.082031 4.894531 -8.082031 L 6.554688 -8.082031 C 6.757812 -8.082031 6.828125 -8.1875 6.828125 -8.453125 L 6.828125 -9.25 C 6.828125 -10.367188 6.183594 -12.34375 3.714844 -12.34375 C 1.949219 -12.34375 0.4375 -11.203125 0.4375 -9.296875 L 0.4375 -2.855469 C 0.4375 -0.914062 1.976562 0.191406 3.707031 0.191406 C 5.472656 0.191406 6.878906 -0.949219 6.878906 -2.855469 L 6.878906 -6.238281 C 6.878906 -6.449219 6.773438 -6.570312 6.5625 -6.570312 L 4.03125 -6.570312 C 3.855469 -6.570312 3.769531 -6.464844 3.769531 -6.265625 L 3.769531 -4.929688 C 3.769531 -4.71875 3.855469 -4.628906 4.03125 -4.628906 L 4.683594 -4.628906 Z M 4.683594 -2.925781 "/></g></g></g><g fill="#ffffff" fill-opacity="1"><g transform="translate(255.179765, 193.875045)"><g><path d="M 4.769531 -2.988281 C 4.769531 -2.433594 4.429688 -1.925781 3.839844 -1.925781 C 3.242188 -1.925781 2.898438 -2.433594 2.898438 -2.988281 L 2.898438 -11.816406 C 2.898438 -12 2.847656 -12.160156 2.636719 -12.160156 L 0.78125 -12.160156 C 0.660156 -12.160156 0.554688 -12 0.554688 -11.816406 L 0.554688 -2.855469 C 0.554688 -1.167969 2.074219 0.191406 3.832031 0.191406 C 5.585938 0.191406 7.117188 -1.167969 7.117188 -2.855469 L 7.117188 -11.808594 C 7.117188 -11.984375 7.027344 -12.160156 6.835938 -12.160156 L 5.050781 -12.160156 C 4.867188 -12.160156 4.769531 -11.992188 4.769531 -11.808594 Z M 4.769531 -2.988281 "/></g></g></g><g fill="#ffffff" fill-opacity="1"><g transform="translate(272.117593, 193.875045)"><g><path d="M 8.996094 -0.351562 C 8.996094 -0.167969 9.09375 0 9.277344 0 L 11.0625 0 C 11.253906 0 11.332031 -0.175781 11.332031 -0.351562 L 11.332031 -9.304688 C 11.332031 -10.992188 9.804688 -12.351562 8.046875 -12.351562 C 7.257812 -12.351562 6.511719 -12.078125 5.9375 -11.625 C 5.359375 -12.078125 4.613281 -12.351562 3.832031 -12.351562 C 2.074219 -12.351562 0.554688 -10.992188 0.554688 -9.304688 L 0.554688 -0.34375 C 0.554688 -0.15625 0.660156 0 0.78125 0 L 2.636719 0 C 2.847656 0 2.898438 -0.148438 2.898438 -0.34375 L 2.898438 -9.171875 C 2.898438 -9.726562 3.242188 -10.226562 3.839844 -10.226562 C 4.429688 -10.226562 4.769531 -9.726562 4.769531 -9.171875 L 4.769531 -0.34375 C 4.769531 -0.15625 4.882812 0 5.007812 0 L 6.863281 0 C 7.070312 0 7.117188 -0.148438 7.117188 -0.332031 L 7.117188 -9.207031 C 7.132812 -9.742188 7.476562 -10.226562 8.054688 -10.226562 C 8.644531 -10.226562 8.996094 -9.726562 8.996094 -9.171875 Z M 8.996094 -0.351562 "/></g></g></g><g fill="#ffffff" fill-opacity="1"><g transform="translate(293.271423, 193.875045)"><g><path d="M 4.8125 -4.882812 C 6.027344 -5.28125 6.933594 -6.289062 6.933594 -7.757812 L 6.933594 -11.964844 C 6.933594 -12.089844 6.863281 -12.160156 6.746094 -12.160156 L 4.777344 -12.160156 C 4.648438 -12.160156 4.585938 -12.070312 4.585938 -11.957031 L 4.585938 -7.828125 C 4.585938 -7.273438 4.253906 -6.828125 3.644531 -6.828125 C 3.039062 -6.828125 2.714844 -7.328125 2.714844 -7.878906 L 2.714844 -11.972656 C 2.714844 -12.070312 2.636719 -12.160156 2.496094 -12.160156 L 0.5625 -12.160156 C 0.429688 -12.160156 0.378906 -12.070312 0.378906 -11.957031 L 0.367188 -7.757812 C 0.367188 -6.324219 1.265625 -5.296875 2.476562 -4.894531 L 2.476562 -0.34375 C 2.476562 -0.121094 2.554688 0 2.742188 0 L 4.558594 0 C 4.742188 0 4.8125 -0.121094 4.8125 -0.34375 Z M 4.8125 -4.882812 "/></g></g></g><g fill="#ffffff" fill-opacity="1"><g transform="translate(309.840338, 193.875045)"><g><path d="M 2.898438 -9.171875 C 2.898438 -9.726562 3.242188 -10.226562 3.839844 -10.226562 C 4.429688 -10.226562 4.769531 -9.726562 4.769531 -9.171875 L 4.769531 -4.945312 L 2.898438 -4.945312 Z M 7.117188 -9.304688 C 7.117188 -10.992188 5.585938 -12.351562 3.832031 -12.351562 C 2.074219 -12.351562 0.554688 -10.992188 0.554688 -9.304688 L 0.554688 -0.34375 C 0.554688 -0.15625 0.648438 0 0.78125 0 L 2.636719 0 C 2.847656 0 2.898438 -0.148438 2.898438 -0.34375 L 2.898438 -2.898438 L 4.769531 -2.898438 L 4.769531 -0.351562 C 4.769531 -0.167969 4.875 0 5.050781 0 L 6.835938 0 C 7.035156 0 7.117188 -0.175781 7.117188 -0.351562 Z M 7.117188 -9.304688 "/></g></g></g><path stroke-linecap="butt" transform="matrix(1.500563, 0, 0, 1.5, 93.783896, 168.092802)" fill="none" stroke-linejoin="miter" d="M 0.000839891 0.000632159 L 124.953974 0.000632159 " stroke="#ffffff" stroke-width="1" stroke-opacity="1" stroke-miterlimit="4"/><path stroke-linecap="butt" transform="matrix(1.500563, 0, 0, 1.5, 93.783896, 206.907234)" fill="none" stroke-linejoin="miter" d="M 0.000839891 -0.000655742 L 124.953974 -0.000655742 " stroke="#ffffff" stroke-width="1" stroke-opacity="1" stroke-miterlimit="4"/></svg>